# xmcd
#
# Track frame offsets: 
#        150
#        13565
#        30165
#        50365
#        66622
#        86807
#        103392
#        121185
#        148165
#        166562
#        191572
#
# Disc length: 2766 seconds
#
# Revision: 2
# Processed by: cddbd v1.5.2PL0 Copyright (c) Steve Scherf et al.
# Submitted via: ExactAudioCopy v1.1
#
DISCID=910acc0b
DTITLE=Michael Messer - National Avenue
DYEAR=2012
DGENRE=Blues
TTITLE0=King Guitar
TTITLE1=Step Right Up
TTITLE2=Crow Blues
TTITLE3=Living In Rhythm
TTITLE4=Language Of The Blues
TTITLE5=Moonbeat
TTITLE6=Rollin' 'n' Tumblin'
TTITLE7=Riverboat
TTITLE8=Rising Sun
TTITLE9=Robert Johnson's Wake
TTITLE10=Tailfeather Blues
EXTD=
EXTT0=
EXTT1=
EXTT2=
EXTT3=
EXTT4=
EXTT5=
EXTT6=
EXTT7=
EXTT8=
EXTT9=
EXTT10=
PLAYORDER=
